<svg width="140" height="28" viewBox="0 0 140 28" fill="none" xmlns="http://www.w3.org/2000/svg">
<g clip-path="url(#clip0_3023_20291)">
<path d="M134.26 14.4445C134.572 14.4445 134.833 15.4705 134.923 16.8859C136.029 16.0835 136.958 15.6551 137.214 15.8791C137.462 16.0963 137.008 16.8664 136.145 17.7951C137.547 17.8901 138.526 18.104 138.527 18.3537C138.527 18.6101 137.496 18.8291 136.034 18.9201C136.969 19.9006 137.472 20.7269 137.214 20.9533C136.951 21.1829 135.983 20.7263 134.841 19.8849C134.715 20.8251 134.503 21.4445 134.26 21.4445C134.021 21.4444 133.811 20.8478 133.685 19.9367C132.651 20.664 131.8 21.0422 131.557 20.8293C131.306 20.6104 131.768 19.8293 132.646 18.8908C131.385 18.7878 130.527 18.5875 130.527 18.3537C130.528 18.1266 131.338 17.9309 132.539 17.8254C131.732 16.9389 131.317 16.2129 131.557 16.0031C131.793 15.7963 132.605 16.1464 133.6 16.8342C133.692 15.4456 133.951 14.4446 134.26 14.4445Z" fill="#FF8585"/>
</g>
<path d="M1.26367 20.824V20.584L1.59967 20.488C1.90367 20.408 2.11167 20.272 2.22367 20.08C2.35167 19.888 2.42367 19.632 2.43967 19.312V11.8C2.43967 11.448 2.38367 11.192 2.27167 11.032C2.15967 10.856 1.94367 10.736 1.62367 10.672L1.26367 10.576V10.336L5.36767 8.944L5.60767 9.184L5.79967 10.816C6.32767 10.288 6.92767 9.84 7.59967 9.472C8.28767 9.104 8.99967 8.92 9.73567 8.92C10.5037 8.92 11.1197 9.08 11.5837 9.4C12.0477 9.704 12.3997 10.184 12.6397 10.84C13.2637 10.248 13.9357 9.784 14.6557 9.448C15.3917 9.096 16.1037 8.92 16.7917 8.92C17.9277 8.92 18.7597 9.192 19.2877 9.736C19.8317 10.28 20.1037 11.136 20.1037 12.304V19.336C20.1037 19.96 20.3917 20.352 20.9677 20.512L21.2317 20.584V20.824H15.6877V20.584L15.9277 20.512C16.2317 20.416 16.4397 20.272 16.5517 20.08C16.6797 19.888 16.7437 19.632 16.7437 19.312V11.968C16.7437 11.296 16.6237 10.84 16.3837 10.6C16.1437 10.344 15.7597 10.216 15.2317 10.216C14.8157 10.216 14.4077 10.312 14.0077 10.504C13.6237 10.68 13.2157 10.952 12.7837 11.32C12.8637 11.576 12.9117 11.856 12.9277 12.16C12.9597 12.464 12.9757 12.784 12.9757 13.12V19.336C12.9917 19.96 13.2797 20.352 13.8397 20.512L14.0557 20.584V20.824H8.48767V20.584L8.82367 20.488C9.12767 20.392 9.33567 20.256 9.44767 20.08C9.57567 19.888 9.63967 19.632 9.63967 19.312V11.992C9.63967 11.352 9.51967 10.896 9.27967 10.624C9.05567 10.352 8.66367 10.216 8.10367 10.216C7.73567 10.216 7.36767 10.312 6.99967 10.504C6.63167 10.68 6.24767 10.944 5.84767 11.296V19.336C5.84767 19.96 6.12767 20.352 6.68767 20.512L6.90367 20.584V20.824H1.26367Z" fill="#FF8585"/>
<path d="M25.0499 7.672C24.5059 7.672 24.0419 7.504 23.6579 7.168C23.2899 6.816 23.1059 6.376 23.1059 5.848C23.1059 5.304 23.2899 4.864 23.6579 4.528C24.0419 4.192 24.5059 4.024 25.0499 4.024C25.5939 4.024 26.0499 4.192 26.4179 4.528C26.7859 4.864 26.9699 5.304 26.9699 5.848C26.9699 6.376 26.7859 6.816 26.4179 7.168C26.0499 7.504 25.5939 7.672 25.0499 7.672ZM22.2179 20.824V20.584L22.5539 20.488C22.8739 20.392 23.0899 20.248 23.2019 20.056C23.3299 19.864 23.3939 19.608 23.3939 19.288V11.776C23.3939 11.44 23.3299 11.192 23.2019 11.032C23.0899 10.856 22.8739 10.736 22.5539 10.672L22.2179 10.6V10.36L26.6099 8.944L26.8499 9.184L26.7779 12.592V19.312C26.7779 19.632 26.8339 19.888 26.9459 20.08C27.0739 20.272 27.2899 20.416 27.5939 20.512L27.8339 20.584V20.824H22.2179Z" fill="#FF8585"/>
<path d="M28.8965 20.824V20.584L29.2325 20.488C29.7925 20.328 30.0725 19.936 30.0725 19.312V11.8C30.0725 11.448 30.0165 11.192 29.9045 11.032C29.7925 10.856 29.5765 10.736 29.2565 10.672L28.8965 10.576V10.336L33.0005 8.944L33.2405 9.184L33.4325 10.624C33.9925 10.128 34.6245 9.72 35.3285 9.4C36.0325 9.08 36.7285 8.92 37.4165 8.92C38.4725 8.92 39.2805 9.208 39.8405 9.784C40.4165 10.36 40.7045 11.24 40.7045 12.424V19.336C40.7045 19.96 41.0085 20.352 41.6165 20.512L41.8325 20.584V20.824H36.1685V20.584L36.4805 20.488C37.0405 20.312 37.3205 19.92 37.3205 19.312V11.656C37.3205 10.632 36.8085 10.12 35.7845 10.12C35.0805 10.12 34.3125 10.472 33.4805 11.176V19.336C33.4805 19.96 33.7605 20.352 34.3205 20.512L34.5365 20.584V20.824H28.8965Z" fill="#FF8585"/>
<path d="M47.8595 21.184C46.9155 21.184 46.0675 20.976 45.3155 20.56C44.5635 20.128 43.9635 19.472 43.5155 18.592C43.0835 17.696 42.8675 16.552 42.8675 15.16C42.8675 13.752 43.1155 12.592 43.6115 11.68C44.1075 10.752 44.7635 10.064 45.5795 9.616C46.3955 9.152 47.2835 8.92 48.2435 8.92C48.8035 8.92 49.3395 8.976 49.8515 9.088C50.3635 9.2 50.8195 9.368 51.2195 9.592V6.472C51.2195 6.136 51.1635 5.888 51.0515 5.728C50.9555 5.568 50.7395 5.456 50.4035 5.392L49.9475 5.296V5.056L54.3155 4L54.5795 4.216L54.4835 7.576V19.312C54.4835 19.632 54.5395 19.896 54.6515 20.104C54.7635 20.296 54.9715 20.432 55.2755 20.512L55.4915 20.584V20.824L51.3875 21.088L51.1715 20.224C50.7395 20.512 50.2435 20.744 49.6835 20.92C49.1395 21.096 48.5315 21.184 47.8595 21.184ZM49.2515 20.296C49.9235 20.296 50.5395 20.096 51.0995 19.696V10.168C50.5075 9.784 49.8995 9.592 49.2755 9.592C48.5075 9.592 47.8515 10.04 47.3075 10.936C46.7635 11.816 46.4915 13.208 46.4915 15.112C46.4915 17.016 46.7475 18.36 47.2595 19.144C47.7715 19.912 48.4355 20.296 49.2515 20.296Z" fill="#FF8585"/>
<path d="M61.7793 26.344V26.104L62.0673 26.008C62.6593 25.848 62.9553 25.464 62.9553 24.856V11.8C62.9553 11.448 62.8913 11.184 62.7633 11.008C62.6513 10.832 62.4353 10.712 62.1153 10.648L61.7793 10.576V10.336L65.8593 8.944L66.0993 9.184L66.3153 9.928C66.8433 9.608 67.4273 9.36 68.0673 9.184C68.7233 9.008 69.3953 8.92 70.0833 8.92C71.4593 8.92 72.5473 9.448 73.3473 10.504C74.1633 11.544 74.5713 13.04 74.5713 14.992C74.5713 16.912 74.1233 18.424 73.2273 19.528C72.3473 20.632 71.0993 21.184 69.4833 21.184C68.2193 21.184 67.1553 21 66.2913 20.632V24.784C66.2913 25.424 66.5793 25.824 67.1553 25.984L67.6113 26.104V26.344H61.7793ZM68.3313 20.488C69.1313 20.488 69.7633 20.072 70.2273 19.24C70.7073 18.408 70.9473 17.024 70.9473 15.088C70.9473 13.152 70.7233 11.8 70.2753 11.032C69.8273 10.248 69.1793 9.856 68.3313 9.856C67.7393 9.856 67.0833 10.048 66.3633 10.432V20.104C66.9713 20.36 67.6273 20.488 68.3313 20.488Z" fill="#FF8585"/>
<path d="M75.6325 20.824V20.584L75.9205 20.488C76.4965 20.296 76.7845 19.896 76.7845 19.288V6.448C76.7845 6.128 76.7205 5.888 76.5925 5.728C76.4645 5.552 76.2405 5.424 75.9205 5.344L75.6085 5.272V5.032L80.0005 4L80.2885 4.216L80.1926 7.576V15.784C80.1926 16.376 80.1926 16.968 80.1926 17.56C80.2085 18.136 80.2165 18.712 80.2165 19.288C80.2165 19.608 80.2805 19.872 80.4085 20.08C80.5365 20.272 80.7525 20.416 81.0565 20.512L81.3685 20.584V20.824H75.6325Z" fill="#FF8585"/>
<path d="M85.6974 21.184C84.7694 21.184 83.9854 20.92 83.3454 20.392C82.7214 19.864 82.4094 19.104 82.4094 18.112C82.4094 17.36 82.7934 16.672 83.5614 16.048C84.3294 15.408 85.5374 14.928 87.1854 14.608C87.4414 14.56 87.7294 14.512 88.0494 14.464C88.3694 14.4 88.7054 14.336 89.0574 14.272V12.376C89.0574 11.288 88.9214 10.528 88.6494 10.096C88.3934 9.648 87.9854 9.424 87.4254 9.424C87.0414 9.424 86.7374 9.552 86.5134 9.808C86.2894 10.048 86.1454 10.472 86.0814 11.08L86.0334 11.344C86.0014 12.032 85.8334 12.536 85.5294 12.856C85.2254 13.176 84.8494 13.336 84.4014 13.336C83.9854 13.336 83.6414 13.208 83.3694 12.952C83.0974 12.696 82.9614 12.352 82.9614 11.92C82.9614 11.264 83.1854 10.712 83.6334 10.264C84.0974 9.816 84.7054 9.48 85.4574 9.256C86.2094 9.032 87.0254 8.92 87.9054 8.92C89.3294 8.92 90.4254 9.272 91.1934 9.976C91.9774 10.664 92.3694 11.792 92.3694 13.36V18.664C92.3694 19.384 92.7054 19.744 93.3774 19.744H93.9054L94.1214 19.936C93.8174 20.32 93.4814 20.616 93.1134 20.824C92.7614 21.032 92.2574 21.136 91.6014 21.136C90.8974 21.136 90.3374 20.976 89.9214 20.656C89.5214 20.32 89.2574 19.88 89.1294 19.336C88.6494 19.848 88.1534 20.288 87.6414 20.656C87.1454 21.008 86.4974 21.184 85.6974 21.184ZM87.1614 19.72C87.4814 19.72 87.7774 19.648 88.0494 19.504C88.3374 19.344 88.6734 19.104 89.0574 18.784V14.752C88.8974 14.784 88.7374 14.816 88.5774 14.848C88.4174 14.88 88.2334 14.912 88.0254 14.944C87.2894 15.136 86.6974 15.464 86.2494 15.928C85.8174 16.376 85.6014 16.984 85.6014 17.752C85.6014 18.408 85.7534 18.904 86.0574 19.24C86.3614 19.56 86.7294 19.72 87.1614 19.72Z" fill="#FF8585"/>
<path d="M94.5684 20.824V20.584L94.9044 20.488C95.4644 20.328 95.7444 19.936 95.7444 19.312V11.8C95.7444 11.448 95.6884 11.192 95.5764 11.032C95.4644 10.856 95.2484 10.736 94.9284 10.672L94.5684 10.576V10.336L98.6724 8.944L98.9124 9.184L99.1044 10.624C99.6644 10.128 100.296 9.72 101 9.4C101.704 9.08 102.4 8.92 103.088 8.92C104.144 8.92 104.952 9.208 105.512 9.784C106.088 10.36 106.376 11.24 106.376 12.424V19.336C106.376 19.96 106.68 20.352 107.288 20.512L107.504 20.584V20.824H101.84V20.584L102.152 20.488C102.712 20.312 102.992 19.92 102.992 19.312V11.656C102.992 10.632 102.48 10.12 101.456 10.12C100.752 10.12 99.9844 10.472 99.1524 11.176V19.336C99.1524 19.96 99.4324 20.352 99.9924 20.512L100.208 20.584V20.824H94.5684Z" fill="#FF8585"/>
<path d="M114.467 8.92C115.507 8.92 116.395 9.136 117.131 9.568C117.867 9.984 118.427 10.56 118.811 11.296C119.211 12.016 119.411 12.84 119.411 13.768C119.411 13.944 119.403 14.128 119.387 14.32C119.371 14.496 119.339 14.656 119.291 14.8H112.139C112.155 16.528 112.459 17.776 113.051 18.544C113.659 19.296 114.555 19.672 115.739 19.672C116.539 19.672 117.187 19.544 117.683 19.288C118.179 19.032 118.643 18.656 119.075 18.16L119.315 18.376C118.819 19.256 118.155 19.944 117.323 20.44C116.507 20.936 115.523 21.184 114.371 21.184C113.235 21.184 112.227 20.944 111.347 20.464C110.467 19.968 109.779 19.264 109.283 18.352C108.787 17.44 108.539 16.352 108.539 15.088C108.539 13.776 108.827 12.664 109.403 11.752C109.979 10.824 110.715 10.12 111.611 9.64C112.523 9.16 113.475 8.92 114.467 8.92ZM114.395 9.4C113.931 9.4 113.531 9.544 113.195 9.832C112.875 10.104 112.619 10.6 112.427 11.32C112.251 12.024 112.155 13.024 112.139 14.32H116.243C116.403 12.576 116.339 11.32 116.051 10.552C115.763 9.784 115.211 9.4 114.395 9.4Z" fill="#FF8585"/>
<path d="M125.167 21.184C124.143 21.184 123.343 20.928 122.767 20.416C122.207 19.904 121.927 19.088 121.927 17.968V9.76H120.271V9.52L120.847 9.424C121.343 9.312 121.767 9.152 122.119 8.944C122.487 8.736 122.847 8.456 123.199 8.104L125.167 5.92H125.407L125.335 9.28H128.023V9.76H125.311V18.4C125.311 18.96 125.431 19.384 125.671 19.672C125.927 19.96 126.247 20.104 126.631 20.104C126.967 20.104 127.263 20.024 127.519 19.864C127.775 19.688 128.031 19.456 128.287 19.168L128.527 19.408C128.207 19.952 127.767 20.384 127.207 20.704C126.647 21.024 125.967 21.184 125.167 21.184Z" fill="#FF8585"/>
<defs>
<clipPath id="clip0_3023_20291">
<rect width="8" height="7" fill="white" transform="translate(130.527 14.4445)"/>
</clipPath>
</defs>
</svg>
